<?xml version="1.0" encoding="UTF-8"?>
<svg xmlns="http://www.w3.org/2000/svg" viewBox="0 0 480 480" renderer-info="lunnie-artwork"><defs><radialGradient id="bg2" cx="0.5" cy="0.5" r="0.6" fx="0.5" fy="0.2"><stop offset="0" stop-color="#8b0000"/><stop offset="0.6" stop-color="#3a0008"/><stop offset="1" stop-color="#0a0a0c"/></radialGradient><radialGradient id="visor2" cx="0.5" cy="0.5" r="0.6" fx="0.35" fy="0.3"><stop offset="0" stop-color="#f0eaea"/><stop offset="0.55" stop-color="#e63946"/><stop offset="1" stop-color="#b3001b"/></radialGradient><linearGradient id="glass2" x1="0" y1="0" x2="1" y2="1"><stop offset="0" stop-color="#f0eaea"/><stop offset="1" stop-color="#ffffff"/></linearGradient><filter id="g2" x="0" y="0" width="100%" height="100%"><feTurbulence type="fractalNoise" baseFrequency="1.1" numOctaves="2" stitchTiles="stitch"/><feColorMatrix type="matrix" values="0 0 0 0 1  0 0 0 0 1  0 0 0 0 1  0 0 0 0.12 0"/></filter></defs><rect width="480" height="480" fill="url(#bg2)"/><circle cx="435" cy="39" r="0.8" fill="#ffffff" opacity="0.81"/><circle cx="216" cy="450" r="1.3" fill="#ffffff" opacity="0.39"/><circle cx="449" cy="409" r="1.8" fill="#ffffff" opacity="0.67"/><circle cx="230" cy="368" r="0.8" fill="#ffffff" opacity="0.25"/><circle cx="463" cy="327" r="1.3" fill="#ffffff" opacity="0.53"/><circle cx="244" cy="286" r="1.8" fill="#ffffff" opacity="0.81"/><circle cx="25" cy="245" r="0.8" fill="#ffffff" opacity="0.39"/><circle cx="258" cy="204" r="1.3" fill="#ffffff" opacity="0.67"/><circle cx="39" cy="163" r="1.8" fill="#ffffff" opacity="0.25"/><circle cx="272" cy="122" r="0.8" fill="#ffffff" opacity="0.53"/><circle cx="53" cy="81" r="1.3" fill="#ffffff" opacity="0.81"/><circle cx="286" cy="40" r="1.8" fill="#ffffff" opacity="0.39"/><circle cx="67" cy="451" r="0.8" fill="#ffffff" opacity="0.67"/><circle cx="300" cy="410" r="1.3" fill="#ffffff" opacity="0.25"/><circle cx="81" cy="369" r="1.8" fill="#ffffff" opacity="0.53"/><circle cx="314" cy="328" r="0.8" fill="#ffffff" opacity="0.81"/><circle cx="95" cy="287" r="1.3" fill="#ffffff" opacity="0.39"/><circle cx="328" cy="246" r="1.8" fill="#ffffff" opacity="0.67"/><circle cx="109" cy="205" r="0.8" fill="#ffffff" opacity="0.25"/><circle cx="342" cy="164" r="1.3" fill="#ffffff" opacity="0.53"/><circle cx="123" cy="123" r="1.8" fill="#ffffff" opacity="0.81"/><circle cx="356" cy="82" r="0.8" fill="#ffffff" opacity="0.39"/><circle cx="137" cy="41" r="1.3" fill="#ffffff" opacity="0.67"/><circle cx="370" cy="452" r="1.8" fill="#ffffff" opacity="0.25"/><circle cx="151" cy="411" r="0.8" fill="#ffffff" opacity="0.53"/><circle cx="384" cy="370" r="1.3" fill="#ffffff" opacity="0.81"/><circle cx="165" cy="329" r="1.8" fill="#ffffff" opacity="0.39"/><circle cx="398" cy="288" r="0.8" fill="#ffffff" opacity="0.67"/><circle cx="179" cy="247" r="1.3" fill="#ffffff" opacity="0.25"/><circle cx="412" cy="206" r="1.8" fill="#ffffff" opacity="0.53"/><circle cx="193" cy="165" r="0.8" fill="#ffffff" opacity="0.81"/><circle cx="426" cy="124" r="1.3" fill="#ffffff" opacity="0.39"/><circle cx="207" cy="83" r="1.8" fill="#ffffff" opacity="0.67"/><circle cx="440" cy="42" r="0.8" fill="#ffffff" opacity="0.25"/><circle cx="221" cy="453" r="1.3" fill="#ffffff" opacity="0.53"/><circle cx="454" cy="412" r="1.8" fill="#ffffff" opacity="0.81"/><circle cx="235" cy="371" r="0.8" fill="#ffffff" opacity="0.39"/><circle cx="16" cy="330" r="1.3" fill="#ffffff" opacity="0.67"/><circle cx="249" cy="289" r="1.8" fill="#ffffff" opacity="0.25"/><circle cx="30" cy="248" r="0.8" fill="#ffffff" opacity="0.53"/><circle cx="263" cy="207" r="1.3" fill="#ffffff" opacity="0.81"/><circle cx="44" cy="166" r="1.8" fill="#ffffff" opacity="0.39"/><circle cx="277" cy="125" r="0.8" fill="#ffffff" opacity="0.67"/><circle cx="58" cy="84" r="1.3" fill="#ffffff" opacity="0.25"/><circle cx="291" cy="43" r="1.8" fill="#ffffff" opacity="0.53"/><circle cx="72" cy="454" r="0.8" fill="#ffffff" opacity="0.81"/><circle cx="305" cy="413" r="1.3" fill="#ffffff" opacity="0.39"/><circle cx="86" cy="372" r="1.8" fill="#ffffff" opacity="0.67"/><circle cx="319" cy="331" r="0.8" fill="#ffffff" opacity="0.25"/><circle cx="100" cy="290" r="1.3" fill="#ffffff" opacity="0.53"/><circle cx="333" cy="249" r="1.8" fill="#ffffff" opacity="0.81"/><circle cx="114" cy="208" r="0.8" fill="#ffffff" opacity="0.39"/><circle cx="347" cy="167" r="1.3" fill="#ffffff" opacity="0.67"/><circle cx="128" cy="126" r="1.8" fill="#ffffff" opacity="0.25"/><circle cx="361" cy="85" r="0.8" fill="#ffffff" opacity="0.53"/><path d="M364 111 L367 117 L373 120 L367 123 L364 129 L361 123 L355 120 L361 117 Z" fill="#ff4d63"/><path d="M116 343 L119 349 L125 352 L119 355 L116 361 L113 355 L107 352 L113 349 Z" fill="#f0eaea"/><circle cx="240" cy="246" r="168" fill="#8b0000" stroke="#e63946" stroke-width="10"/><circle cx="240" cy="246" r="128" fill="url(#visor2)"/><path d="M186 L168 L196 L128 L216 L158 Z" fill="#0a0a0c"/><path d="M264 L158 L284 L128 L294 L168 Z" fill="#0a0a0c"/><path d="M196 248 Q216 222 238 248 Q216 260 196 248 Z" fill="#17171a"/><path d="M242 248 Q264 222 284 248 Q264 260 242 248 Z" fill="#17171a"/><circle cx="219" cy="243" r="5" fill="#ffffff"/><circle cx="265" cy="243" r="5" fill="#ffffff"/><path d="M233 L268 L247 L268 L240 L278 Z" fill="#ff4d63"/><path d="M214 268 H182 M180 272 H158 M214 280 H186" stroke="#f0eaea" stroke-width="3" stroke-linecap="round" opacity="0.8"/><path d="M266 268 H298 M300 272 H322 M266 280 H294" stroke="#f0eaea" stroke-width="3" stroke-linecap="round" opacity="0.8"/><path d="M180 176 Q240 140 300 176 Q248 150 196 172 Z" fill="url(#glass2)" opacity="0.28"/><rect width="480" height="480" fill="#fff" filter="url(#g2)"/></svg>
