<svg xmlns="http://www.w3.org/2000/svg" viewBox="0 0 648 392" renderer-info="lunnie-kit"><circle cx="0" cy="0" r="0.6" fill="#f0eaea" opacity="0.050"/><circle cx="233" cy="331" r="2.1" fill="#f0eaea" opacity="0.185"/><circle cx="466" cy="270" r="1.6" fill="#f0eaea" opacity="0.140"/><circle cx="51" cy="209" r="1.1" fill="#f0eaea" opacity="0.095"/><circle cx="284" cy="148" r="0.6" fill="#f0eaea" opacity="0.050"/><circle cx="517" cy="87" r="2.1" fill="#f0eaea" opacity="0.185"/><circle cx="102" cy="26" r="1.6" fill="#f0eaea" opacity="0.140"/><circle cx="335" cy="357" r="1.1" fill="#f0eaea" opacity="0.095"/><circle cx="568" cy="296" r="0.6" fill="#f0eaea" opacity="0.050"/><circle cx="153" cy="235" r="2.1" fill="#f0eaea" opacity="0.185"/><circle cx="386" cy="174" r="1.6" fill="#f0eaea" opacity="0.140"/><circle cx="619" cy="113" r="1.1" fill="#f0eaea" opacity="0.095"/><circle cx="204" cy="52" r="0.6" fill="#f0eaea" opacity="0.050"/><circle cx="437" cy="383" r="2.1" fill="#f0eaea" opacity="0.185"/><circle cx="22" cy="322" r="1.6" fill="#f0eaea" opacity="0.140"/><circle cx="255" cy="261" r="1.1" fill="#f0eaea" opacity="0.095"/><circle cx="488" cy="200" r="0.6" fill="#f0eaea" opacity="0.050"/><circle cx="73" cy="139" r="2.1" fill="#f0eaea" opacity="0.185"/><circle cx="306" cy="78" r="1.6" fill="#f0eaea" opacity="0.140"/><circle cx="539" cy="17" r="1.1" fill="#f0eaea" opacity="0.095"/><circle cx="124" cy="348" r="0.6" fill="#f0eaea" opacity="0.050"/><circle cx="357" cy="287" r="2.1" fill="#f0eaea" opacity="0.185"/><circle cx="590" cy="226" r="1.6" fill="#f0eaea" opacity="0.140"/><circle cx="175" cy="165" r="1.1" fill="#f0eaea" opacity="0.095"/><circle cx="408" cy="104" r="0.6" fill="#f0eaea" opacity="0.050"/><circle cx="641" cy="43" r="2.1" fill="#f0eaea" opacity="0.185"/><circle cx="226" cy="374" r="1.6" fill="#f0eaea" opacity="0.140"/><circle cx="459" cy="313" r="1.1" fill="#f0eaea" opacity="0.095"/><circle cx="44" cy="252" r="0.6" fill="#f0eaea" opacity="0.050"/><circle cx="277" cy="191" r="2.1" fill="#f0eaea" opacity="0.185"/><circle cx="510" cy="130" r="1.6" fill="#f0eaea" opacity="0.140"/><circle cx="95" cy="69" r="1.1" fill="#f0eaea" opacity="0.095"/><circle cx="328" cy="8" r="0.6" fill="#f0eaea" opacity="0.050"/><circle cx="561" cy="339" r="2.1" fill="#f0eaea" opacity="0.185"/><circle cx="146" cy="278" r="1.6" fill="#f0eaea" opacity="0.140"/><circle cx="379" cy="217" r="1.1" fill="#f0eaea" opacity="0.095"/><circle cx="612" cy="156" r="0.6" fill="#f0eaea" opacity="0.050"/><circle cx="197" cy="95" r="2.1" fill="#f0eaea" opacity="0.185"/><circle cx="430" cy="34" r="1.6" fill="#f0eaea" opacity="0.140"/><circle cx="15" cy="365" r="1.1" fill="#f0eaea" opacity="0.095"/><circle cx="248" cy="304" r="0.6" fill="#f0eaea" opacity="0.050"/><circle cx="481" cy="243" r="2.1" fill="#f0eaea" opacity="0.185"/><circle cx="66" cy="182" r="1.6" fill="#f0eaea" opacity="0.140"/><circle cx="299" cy="121" r="1.1" fill="#f0eaea" opacity="0.095"/><circle cx="532" cy="60" r="0.6" fill="#f0eaea" opacity="0.050"/><circle cx="117" cy="391" r="2.1" fill="#f0eaea" opacity="0.185"/><circle cx="350" cy="330" r="1.6" fill="#f0eaea" opacity="0.140"/><circle cx="583" cy="269" r="1.1" fill="#f0eaea" opacity="0.095"/><circle cx="168" cy="208" r="0.6" fill="#f0eaea" opacity="0.050"/><circle cx="401" cy="147" r="2.1" fill="#f0eaea" opacity="0.185"/><circle cx="634" cy="86" r="1.6" fill="#f0eaea" opacity="0.140"/><circle cx="219" cy="25" r="1.1" fill="#f0eaea" opacity="0.095"/><circle cx="452" cy="356" r="0.6" fill="#f0eaea" opacity="0.050"/><circle cx="37" cy="295" r="2.1" fill="#f0eaea" opacity="0.185"/><circle cx="270" cy="234" r="1.6" fill="#f0eaea" opacity="0.140"/><circle cx="503" cy="173" r="1.1" fill="#f0eaea" opacity="0.095"/><circle cx="88" cy="112" r="0.6" fill="#f0eaea" opacity="0.050"/><circle cx="321" cy="51" r="2.1" fill="#f0eaea" opacity="0.185"/><circle cx="554" cy="382" r="1.6" fill="#f0eaea" opacity="0.140"/><circle cx="139" cy="321" r="1.1" fill="#f0eaea" opacity="0.095"/><circle cx="372" cy="260" r="0.6" fill="#f0eaea" opacity="0.050"/><circle cx="605" cy="199" r="2.1" fill="#f0eaea" opacity="0.185"/><circle cx="190" cy="138" r="1.6" fill="#f0eaea" opacity="0.140"/><circle cx="423" cy="77" r="1.1" fill="#f0eaea" opacity="0.095"/><circle cx="8" cy="16" r="0.6" fill="#f0eaea" opacity="0.050"/><circle cx="241" cy="347" r="2.1" fill="#f0eaea" opacity="0.185"/><circle cx="474" cy="286" r="1.6" fill="#f0eaea" opacity="0.140"/><circle cx="59" cy="225" r="1.1" fill="#f0eaea" opacity="0.095"/><circle cx="292" cy="164" r="0.6" fill="#f0eaea" opacity="0.050"/><circle cx="525" cy="103" r="2.1" fill="#f0eaea" opacity="0.185"/><circle cx="110" cy="42" r="1.6" fill="#f0eaea" opacity="0.140"/><circle cx="343" cy="373" r="1.1" fill="#f0eaea" opacity="0.095"/><circle cx="576" cy="312" r="0.6" fill="#f0eaea" opacity="0.050"/><circle cx="161" cy="251" r="2.1" fill="#f0eaea" opacity="0.185"/><circle cx="394" cy="190" r="1.6" fill="#f0eaea" opacity="0.140"/><circle cx="627" cy="129" r="1.1" fill="#f0eaea" opacity="0.095"/><circle cx="212" cy="68" r="0.6" fill="#f0eaea" opacity="0.050"/><circle cx="445" cy="7" r="2.1" fill="#f0eaea" opacity="0.185"/><circle cx="30" cy="338" r="1.6" fill="#f0eaea" opacity="0.140"/><circle cx="263" cy="277" r="1.1" fill="#f0eaea" opacity="0.095"/><circle cx="496" cy="216" r="0.6" fill="#f0eaea" opacity="0.050"/><circle cx="81" cy="155" r="2.1" fill="#f0eaea" opacity="0.185"/><circle cx="314" cy="94" r="1.6" fill="#f0eaea" opacity="0.140"/><circle cx="547" cy="33" r="1.1" fill="#f0eaea" opacity="0.095"/><circle cx="132" cy="364" r="0.6" fill="#f0eaea" opacity="0.050"/><circle cx="365" cy="303" r="2.1" fill="#f0eaea" opacity="0.185"/><circle cx="598" cy="242" r="1.6" fill="#f0eaea" opacity="0.140"/><circle cx="183" cy="181" r="1.1" fill="#f0eaea" opacity="0.095"/><circle cx="416" cy="120" r="0.6" fill="#f0eaea" opacity="0.050"/><circle cx="1" cy="59" r="2.1" fill="#f0eaea" opacity="0.185"/><circle cx="234" cy="390" r="1.6" fill="#f0eaea" opacity="0.140"/><circle cx="467" cy="329" r="1.1" fill="#f0eaea" opacity="0.095"/><circle cx="52" cy="268" r="0.6" fill="#f0eaea" opacity="0.050"/><circle cx="285" cy="207" r="2.1" fill="#f0eaea" opacity="0.185"/><circle cx="518" cy="146" r="1.6" fill="#f0eaea" opacity="0.140"/><circle cx="103" cy="85" r="1.1" fill="#f0eaea" opacity="0.095"/><circle cx="336" cy="24" r="0.6" fill="#f0eaea" opacity="0.050"/><circle cx="569" cy="355" r="2.1" fill="#f0eaea" opacity="0.185"/><circle cx="154" cy="294" r="1.6" fill="#f0eaea" opacity="0.140"/><circle cx="387" cy="233" r="1.1" fill="#f0eaea" opacity="0.095"/><circle cx="620" cy="172" r="0.6" fill="#f0eaea" opacity="0.050"/><circle cx="205" cy="111" r="2.1" fill="#f0eaea" opacity="0.185"/><circle cx="438" cy="50" r="1.6" fill="#f0eaea" opacity="0.140"/><circle cx="23" cy="381" r="1.1" fill="#f0eaea" opacity="0.095"/><circle cx="256" cy="320" r="0.6" fill="#f0eaea" opacity="0.050"/><circle cx="489" cy="259" r="2.1" fill="#f0eaea" opacity="0.185"/><circle cx="74" cy="198" r="1.6" fill="#f0eaea" opacity="0.140"/><circle cx="307" cy="137" r="1.1" fill="#f0eaea" opacity="0.095"/><circle cx="540" cy="76" r="0.6" fill="#f0eaea" opacity="0.050"/><circle cx="125" cy="15" r="2.1" fill="#f0eaea" opacity="0.185"/><circle cx="358" cy="346" r="1.6" fill="#f0eaea" opacity="0.140"/><circle cx="591" cy="285" r="1.1" fill="#f0eaea" opacity="0.095"/><circle cx="176" cy="224" r="0.6" fill="#f0eaea" opacity="0.050"/><circle cx="409" cy="163" r="2.1" fill="#f0eaea" opacity="0.185"/><circle cx="642" cy="102" r="1.6" fill="#f0eaea" opacity="0.140"/><circle cx="227" cy="41" r="1.1" fill="#f0eaea" opacity="0.095"/><circle cx="460" cy="372" r="0.6" fill="#f0eaea" opacity="0.050"/><circle cx="45" cy="311" r="2.1" fill="#f0eaea" opacity="0.185"/><circle cx="278" cy="250" r="1.6" fill="#f0eaea" opacity="0.140"/><circle cx="511" cy="189" r="1.1" fill="#f0eaea" opacity="0.095"/><circle cx="96" cy="128" r="0.6" fill="#f0eaea" opacity="0.050"/><circle cx="329" cy="67" r="2.1" fill="#f0eaea" opacity="0.185"/><circle cx="562" cy="6" r="1.6" fill="#f0eaea" opacity="0.140"/><circle cx="147" cy="337" r="1.1" fill="#f0eaea" opacity="0.095"/><circle cx="380" cy="276" r="0.6" fill="#f0eaea" opacity="0.050"/><circle cx="613" cy="215" r="2.1" fill="#f0eaea" opacity="0.185"/><circle cx="198" cy="154" r="1.6" fill="#f0eaea" opacity="0.140"/><circle cx="431" cy="93" r="1.1" fill="#f0eaea" opacity="0.095"/><circle cx="16" cy="32" r="0.6" fill="#f0eaea" opacity="0.050"/><circle cx="249" cy="363" r="2.1" fill="#f0eaea" opacity="0.185"/><circle cx="482" cy="302" r="1.6" fill="#f0eaea" opacity="0.140"/><circle cx="67" cy="241" r="1.1" fill="#f0eaea" opacity="0.095"/><circle cx="300" cy="180" r="0.6" fill="#f0eaea" opacity="0.050"/><circle cx="533" cy="119" r="2.1" fill="#f0eaea" opacity="0.185"/><circle cx="118" cy="58" r="1.6" fill="#f0eaea" opacity="0.140"/><circle cx="351" cy="389" r="1.1" fill="#f0eaea" opacity="0.095"/><circle cx="584" cy="328" r="0.6" fill="#f0eaea" opacity="0.050"/><circle cx="169" cy="267" r="2.1" fill="#f0eaea" opacity="0.185"/><circle cx="402" cy="206" r="1.6" fill="#f0eaea" opacity="0.140"/><circle cx="635" cy="145" r="1.1" fill="#f0eaea" opacity="0.095"/></svg>
